<svg xmlns="http://www.w3.org/2000/svg">
	<symbol id="icon-like" viewBox="0 0 24 22">
		<path
			d="M22.7848 5.70581C22.1692 3.13551 20.2581 1.33064 17.8519 1.05188C15.4673 0.773112 13.6809 1.88344 12.3336 3.9718C12.2217 4.14662 12.1227 4.32616 11.9979 4.53878C11.9462 4.45846 11.9075 4.39231 11.8688 4.32144C11.0897 2.95597 10.0824 1.88344 8.67488 1.34481C5.54126 0.154162 1.71033 2.10078 1.08188 6.35311C0.776268 8.44147 1.34445 10.2605 2.48082 11.9048C3.30727 13.1001 4.28007 14.1443 5.33465 15.094C7.39216 16.9461 9.4755 18.7699 11.5459 20.6031C11.6923 20.7307 11.8343 20.8583 11.9936 21C12.0495 20.9528 12.1055 20.9102 12.1615 20.863C14.1975 19.0676 16.2464 17.2863 18.2694 15.472C19.4575 14.4089 20.5809 13.2655 21.515 11.9142C22.2381 10.8653 22.7676 9.72189 22.9397 8.40367C22.957 8.26665 22.9828 8.12491 23 7.98789C23 7.6288 23 7.26499 23 6.90591C22.9268 6.5043 22.8795 6.09797 22.7848 5.70581Z"
			stroke="#AC8361" fill="currentColor" />
	</symbol>
	<symbol id="header-like" viewBox="0 0 22 20">
		<path
			d="M21.7848 4.70581C21.1692 2.13551 19.2581 0.330639 16.8519 0.0518751C14.4673 -0.226888 12.6809 0.883441 11.3336 2.9718C11.2217 3.14662 11.1227 3.32616 10.9979 3.53878C10.9462 3.45846 10.9075 3.39231 10.8688 3.32144C10.0897 1.95597 9.08243 0.883441 7.67488 0.344813C4.54126 -0.845838 0.710327 1.10078 0.0818816 5.35311C-0.223732 7.44147 0.344451 9.26052 1.48082 10.9048C2.30727 12.1001 3.28007 13.1443 4.33465 14.094C6.39216 15.9461 8.4755 17.7699 10.5459 19.6031C10.6923 19.7307 10.8343 19.8583 10.9936 20C11.0496 19.9528 11.1055 19.9102 11.1615 19.863C13.1975 18.0676 15.2464 16.2863 17.2694 14.472C18.4575 13.4089 19.5809 12.2655 20.515 10.9142C21.2381 9.86529 21.7676 8.72189 21.9397 7.40367C21.957 7.26665 21.9828 7.12491 22 6.98789V5.90591C21.9268 5.5043 21.8795 5.09797 21.7848 4.70581Z"
			fill="#AC8361" />
	</symbol>
	<symbol id="header-visual-choice" viewBox="0 0 22 18" fill="currentColor">
		<path d="M21.1182 0.5V16.5996H0.5V0.5H21.1182Z" stroke="#AC8361" stroke-miterlimit="10" stroke-linecap="round"
			stroke-linejoin="round" />
		<path d="M7.20532 4.5V16.2" stroke="#AC8361" stroke-miterlimit="10" stroke-linecap="round"
			stroke-linejoin="round" />
		<path d="M7.20508 0.900391L7.20508 2.70039" stroke="#AC8361" stroke-miterlimit="10" stroke-linecap="round"
			stroke-linejoin="round" />
		<path d="M10.8088 7.20001H20.5369" stroke="#AC8361" stroke-miterlimit="10" stroke-linecap="round"
			stroke-linejoin="round" />
		<path d="M7.20532 7.20001H8.82667" stroke="#AC8361" stroke-miterlimit="10" stroke-linecap="round"
			stroke-linejoin="round" />
	</symbol>
	<symbol id="header-by-parameters" viewBox="0 0 20 15" fill="currentColor">
		<circle cx="15.4167" cy="2.91667" r="2.41667" stroke="#AD8361" />
		<circle cx="4.58333" cy="12.0833" r="2.41667" transform="rotate(-180 4.58333 12.0833)" stroke="#AD8361" />
		<line x1="0.5" y1="2.83331" x2="12.8333" y2="2.83331" stroke="#AD8361" stroke-linecap="round" />
		<line x1="19.5" y1="12.1667" x2="7.16667" y2="12.1667" stroke="#AD8361" stroke-linecap="round" />
		<line x1="18" y1="2.83331" x2="19.5" y2="2.83331" stroke="#AD8361" stroke-linecap="round" />
		<line x1="2" y1="12.1667" x2="0.5" y2="12.1667" stroke="#AD8361" stroke-linecap="round" />
	</symbol>
	<symbol id="header-burger" viewBox="0 0 44 10">
		<rect width="44" height="1" rx="0.5" fill="#090909" />
		<rect y="9" width="44" height="1" rx="0.5" fill="#090909" />
	</symbol>
	<symbol id="filter-close" viewBox="0 0 13 13" fill="none" xmlns="http://www.w3.org/2000/svg">
		<g opacity="0.7">
			<line x1="12.0209" y1="0.707107" x2="0.707166" y2="12.0208" stroke="currentColor" stroke-linecap="round" />
			<line x1="12.0208" y1="12.0215" x2="0.707091" y2="0.707775" stroke="currentColor" stroke-linecap="round" />
		</g>
	</symbol>
	<symbol id="filter-key" viewBox="0 0 15 17">
		<path fill-rule="evenodd" clip-rule="evenodd"
			d="M10.2083 1.25C8.48243 1.25 7.08333 2.64911 7.08333 4.375C7.08333 6.10089 8.48243 7.5 10.2083 7.5C11.9342 7.5 13.3333 6.10089 13.3333 4.375C13.3333 2.64911 11.9342 1.25 10.2083 1.25ZM5.83333 4.375C5.83333 1.95876 7.79207 0 10.2083 0C12.6246 0 14.5833 1.95876 14.5833 4.375C14.5833 6.79124 12.6246 8.75 10.2083 8.75C9.2269 8.75 8.32096 8.42685 7.59109 7.88114L4.01002 11.4595L5.23361 12.6831C5.47769 12.9271 5.47769 13.3229 5.23361 13.5669C4.98953 13.811 4.5938 13.811 4.34972 13.5669L3.12579 12.343L1.50905 13.9585L2.73361 15.1831C2.97769 15.4271 2.97769 15.8229 2.73361 16.0669C2.48953 16.311 2.0938 16.311 1.84973 16.0669L0.183058 14.4003C0.0658186 14.283 -3.18888e-05 14.124 1.15849e-08 13.9582C3.1912e-05 13.7924 0.0659435 13.6334 0.183228 13.5162L2.65479 11.0466C2.66382 11.0363 2.67324 11.0262 2.68306 11.0164C2.69299 11.0065 2.70318 10.9969 2.7136 10.9878L6.70649 6.99798C6.15818 6.26712 5.83333 5.359 5.83333 4.375Z"
			fill="#AD8361" />
	</symbol>
	<symbol id="filter-show-result" width="8" height="13" viewBox="0 0 8 13">
		<path d="M8 -3.8147e-06L0 6.1584L8 12.3168V-3.8147e-06Z" />
	</symbol>

</svg>